<?xml version="1.0" encoding="UTF-8" standalone="no"?>
<svg
   height="48"
   viewBox="0 -960 960 960"
   width="48"
   version="1.1"
   id="svg4"
   sodipodi:docname="battery-full.svg"
   inkscape:version="1.2.2 (b0a8486541, 2022-12-01)"
   xmlns:inkscape="http://www.inkscape.org/namespaces/inkscape"
   xmlns:sodipodi="http://sodipodi.sourceforge.net/DTD/sodipodi-0.dtd"
   xmlns="http://www.w3.org/2000/svg"
   xmlns:svg="http://www.w3.org/2000/svg">
  <defs
     id="defs8" />
  <sodipodi:namedview
     id="namedview6"
     pagecolor="#ffffff"
     bordercolor="#000000"
     borderopacity="0.25"
     inkscape:showpageshadow="2"
     inkscape:pageopacity="0.0"
     inkscape:pagecheckerboard="0"
     inkscape:deskcolor="#d1d1d1"
     showgrid="true"
     inkscape:zoom="8"
     inkscape:cx="37.4375"
     inkscape:cy="24.6875"
     inkscape:window-width="2560"
     inkscape:window-height="1550"
     inkscape:window-x="1920"
     inkscape:window-y="50"
     inkscape:window-maximized="1"
     inkscape:current-layer="svg4">
    <inkscape:grid
       type="xygrid"
       id="grid1109" />
  </sodipodi:namedview>
  <path
     fill="#ff9500"
     d="M 650,-80 H 310 c -8.5,0 -15.63,-2.87 -21.38,-8.62 C 282.87,-94.37 280,-101.5 280,-110 v -676 c 0,-8.5 2.875,-15.625 8.625,-21.375 5.75,-5.75 12.875,-8.625 21.375,-8.625 h 90 v -64 h 160 v 64 h 90 c 8.5,0 15.625,2.875 21.375,8.625 5.75,5.75 8.625,12.875 8.625,21.375 v 676 c 0,10 -3.18652,15.946519 -8.62,21.38 C 665.94652,-83.186519 660,-80 650,-80 Z"
     id="path2"
     sodipodi:nodetypes="cssssssccccssscac" />
</svg>
